<svg width="94" height="122" viewBox="0 0 94 122" fill="none" xmlns="http://www.w3.org/2000/svg">
<circle cx="46.6187" cy="46.705" r="45.1187" stroke="#27AE60" stroke-width="3"></circle>
<path d="M30.9204 31.9211H31.5005V35.3533H31.2266C29.9268 35.3533 28.7827 35.552 27.7944 35.9495C26.8169 36.3469 26.0005 36.9055 25.3452 37.6252C24.7007 38.3342 24.2119 39.1775 23.8789 40.155C23.5459 41.1218 23.3794 42.1799 23.3794 43.3293V47.1321C23.3794 48.0237 23.4707 48.8079 23.6533 49.4846C23.8467 50.1506 24.1099 50.7146 24.4429 51.1765C24.7866 51.6277 25.1841 51.9661 25.6353 52.1917C26.0972 52.4172 26.6021 52.53 27.1499 52.53C27.6978 52.53 28.1919 52.4172 28.6323 52.1917C29.0728 51.9661 29.4487 51.6492 29.7603 51.241C30.0825 50.822 30.3242 50.3333 30.4854 49.7747C30.6572 49.2161 30.7432 48.6038 30.7432 47.9377C30.7432 47.2825 30.6626 46.6755 30.5015 46.1169C30.3403 45.5583 30.104 45.0696 29.7925 44.6506C29.481 44.2209 29.0942 43.8933 28.6323 43.6677C28.1812 43.4314 27.6655 43.3132 27.0854 43.3132C26.3335 43.3132 25.6621 43.4905 25.0713 43.845C24.4805 44.1887 24.0132 44.6399 23.6694 45.1985C23.3257 45.7571 23.1377 46.3479 23.1055 46.9709L21.6714 46.262C21.7251 45.3489 21.9185 44.511 22.2515 43.7483C22.5952 42.9856 23.0518 42.3196 23.6211 41.7502C24.2012 41.1809 24.8833 40.7405 25.6675 40.429C26.4624 40.1174 27.3433 39.9617 28.3101 39.9617C29.4272 39.9617 30.4048 40.1765 31.2427 40.6062C32.0806 41.0251 32.7734 41.5999 33.3213 42.3303C33.8799 43.0608 34.2988 43.9041 34.5781 44.8601C34.8574 45.8054 34.9971 46.8044 34.9971 47.8572C34.9971 48.9851 34.8145 50.0378 34.4492 51.0154C34.0947 51.9929 33.5791 52.8469 32.9023 53.5774C32.2256 54.3079 31.4092 54.8772 30.4531 55.2854C29.4971 55.6936 28.4229 55.8977 27.2305 55.8977C25.9736 55.8977 24.8457 55.6614 23.8467 55.1887C22.8584 54.7161 22.0098 54.0608 21.3008 53.2229C20.5918 52.385 20.0493 51.4075 19.6733 50.2903C19.2974 49.1731 19.1094 47.9646 19.1094 46.6648V44.9568C19.1094 43.1199 19.3618 41.4119 19.8667 39.8328C20.3716 38.2537 21.1182 36.8733 22.1064 35.6917C23.1055 34.4993 24.3408 33.5754 25.8125 32.9202C27.2842 32.2542 28.9868 31.9211 30.9204 31.9211ZM53.4629 41.8308V45.7786C53.4629 47.5833 53.2803 49.1248 52.915 50.4031C52.5498 51.6814 52.0234 52.7288 51.3359 53.5452C50.6484 54.3508 49.8267 54.947 48.8706 55.3337C47.9146 55.7097 46.8511 55.8977 45.6802 55.8977C44.7456 55.8977 43.8755 55.7795 43.0698 55.5432C42.2642 55.2961 41.5391 54.9202 40.8945 54.4153C40.2607 53.8997 39.7129 53.2444 39.251 52.4495C38.7998 51.6545 38.4507 50.7039 38.2036 49.5974C37.9673 48.491 37.8491 47.218 37.8491 45.7786V41.8308C37.8491 40.0261 38.0317 38.49 38.397 37.2224C38.7729 35.9548 39.3047 34.9182 39.9922 34.1125C40.6797 33.3069 41.5015 32.7214 42.4575 32.3562C43.4136 31.9802 44.4771 31.7922 45.6479 31.7922C46.5933 31.7922 47.4634 31.9104 48.2583 32.1467C49.064 32.3831 49.7837 32.7537 50.4175 33.2585C51.062 33.7527 51.6099 34.3972 52.061 35.1921C52.5122 35.9763 52.856 36.9216 53.0923 38.0281C53.3394 39.1238 53.4629 40.3914 53.4629 41.8308ZM49.209 46.3586V41.2346C49.209 40.3323 49.1553 39.5481 49.0479 38.8821C48.9512 38.2053 48.8062 37.6306 48.6128 37.158C48.4194 36.6853 48.1777 36.304 47.8877 36.0139C47.5977 35.7131 47.2646 35.4929 46.8887 35.3533C46.5127 35.2136 46.0991 35.1438 45.6479 35.1438C45.0894 35.1438 44.5898 35.2566 44.1494 35.4822C43.709 35.697 43.3384 36.0408 43.0376 36.5134C42.7368 36.9861 42.5059 37.6145 42.3447 38.3987C42.1943 39.1721 42.1191 40.1174 42.1191 41.2346V46.3586C42.1191 47.261 42.1675 48.0505 42.2642 48.7273C42.3716 49.4041 42.522 49.9841 42.7153 50.4675C42.9194 50.9509 43.1611 51.3484 43.4404 51.6599C43.7305 51.9607 44.0635 52.1863 44.4395 52.3367C44.8154 52.4763 45.229 52.5461 45.6802 52.5461C46.2495 52.5461 46.749 52.4333 47.1787 52.2078C47.6191 51.9822 47.9897 51.6277 48.2905 51.1443C48.5913 50.6501 48.8169 50.011 48.9673 49.2268C49.1284 48.4319 49.209 47.4758 49.209 46.3586ZM72.1543 42.6042V46.3909H56.0732V42.6042H72.1543ZM66.1602 36.1428V53.2229H62.0835V36.1428H66.1602Z" fill="#484848"></path>
<path d="M20.853 95.4136C13.4776 95.4136 7.47862 89.473 7.40625 82.0983C7.40755 74.7468 13.3675 68.7877 20.7192 68.7877H46.5519H72.384C79.7586 68.7877 85.757 74.727 85.8307 82.1007C85.757 89.4743 79.7586 95.4136 72.384 95.4136H20.853Z" fill="#27AE60" stroke="#27AE60"></path>
<path d="M18.7539 76.9246H20.0322L23.293 85.0388L26.5469 76.9246H27.832L23.7852 86.8777H22.7871L18.7539 76.9246ZM18.3369 76.9246H19.4648L19.6494 82.9949V86.8777H18.3369V76.9246ZM27.1143 76.9246H28.2422V86.8777H26.9297V82.9949L27.1143 76.9246ZM32.4746 76.9246V86.8777H31.1553V76.9246H32.4746ZM41.4102 85.8044V86.8777H36.4336V85.8044H41.4102ZM36.6934 76.9246V86.8777H35.374V76.9246H36.6934ZM49.457 85.8044V86.8777H44.4805V85.8044H49.457ZM44.7402 76.9246V86.8777H43.4209V76.9246H44.7402ZM52.8828 76.9246V86.8777H51.5635V76.9246H52.8828ZM63.4453 81.5867V82.2156C63.4453 82.963 63.3519 83.6329 63.165 84.2253C62.9782 84.8178 62.7093 85.3214 62.3584 85.7361C62.0075 86.1508 61.5859 86.4675 61.0938 86.6863C60.6061 86.905 60.0592 87.0144 59.4531 87.0144C58.8652 87.0144 58.3252 86.905 57.833 86.6863C57.3454 86.4675 56.9215 86.1508 56.5615 85.7361C56.2061 85.3214 55.9303 84.8178 55.7344 84.2253C55.5384 83.6329 55.4404 82.963 55.4404 82.2156V81.5867C55.4404 80.8393 55.5361 80.1716 55.7275 79.5837C55.9235 78.9913 56.1992 78.4877 56.5547 78.073C56.9102 77.6537 57.3317 77.3347 57.8193 77.116C58.3115 76.8972 58.8516 76.7878 59.4395 76.7878C60.0456 76.7878 60.5924 76.8972 61.0801 77.116C61.5723 77.3347 61.9938 77.6537 62.3447 78.073C62.7002 78.4877 62.9714 78.9913 63.1582 79.5837C63.3496 80.1716 63.4453 80.8393 63.4453 81.5867ZM62.1396 82.2156V81.573C62.1396 80.9806 62.0781 80.4565 61.9551 80.0007C61.8366 79.545 61.6611 79.1622 61.4287 78.8523C61.1963 78.5424 60.9115 78.3077 60.5742 78.1482C60.2415 77.9887 59.8633 77.9089 59.4395 77.9089C59.0293 77.9089 58.6579 77.9887 58.3252 78.1482C57.9971 78.3077 57.7145 78.5424 57.4775 78.8523C57.2451 79.1622 57.0651 79.545 56.9375 80.0007C56.8099 80.4565 56.7461 80.9806 56.7461 81.573V82.2156C56.7461 82.8126 56.8099 83.3412 56.9375 83.8015C57.0651 84.2572 57.2474 84.6423 57.4844 84.9568C57.7259 85.2667 58.0107 85.5014 58.3389 85.6609C58.6715 85.8204 59.043 85.9001 59.4531 85.9001C59.8815 85.9001 60.262 85.8204 60.5947 85.6609C60.9274 85.5014 61.2077 85.2667 61.4355 84.9568C61.668 84.6423 61.8434 84.2572 61.9619 83.8015C62.0804 83.3412 62.1396 82.8126 62.1396 82.2156ZM73.5771 76.9246V86.8777H72.251L67.2402 79.2009V86.8777H65.9209V76.9246H67.2402L72.2715 84.6218V76.9246H73.5771Z" fill="white"></path>
<path d="M11.0796 117.914H8.6499L8.66553 116.359H11.0796C11.7827 116.359 12.3713 116.205 12.8452 115.898C13.3244 115.591 13.6838 115.151 13.9233 114.578C14.1681 114.005 14.2905 113.322 14.2905 112.531V111.914C14.2905 111.299 14.2202 110.755 14.0796 110.281C13.9442 109.807 13.741 109.408 13.4702 109.085C13.2046 108.763 12.8765 108.518 12.4858 108.351C12.1004 108.184 11.6551 108.101 11.1499 108.101H8.60303V106.539H11.1499C11.9051 106.539 12.5952 106.666 13.2202 106.921C13.8452 107.171 14.3843 107.533 14.8374 108.007C15.2957 108.481 15.6473 109.049 15.8921 109.71C16.1369 110.372 16.2593 111.111 16.2593 111.929V112.531C16.2593 113.348 16.1369 114.088 15.8921 114.75C15.6473 115.411 15.2957 115.979 14.8374 116.453C14.3791 116.921 13.8322 117.283 13.1968 117.539C12.5666 117.789 11.8608 117.914 11.0796 117.914ZM9.73584 106.539V117.914H7.7749V106.539H9.73584ZM17.6812 113.781V113.601C17.6812 112.992 17.7697 112.427 17.9468 111.906C18.1239 111.38 18.3791 110.924 18.7124 110.539C19.0509 110.148 19.4624 109.846 19.9468 109.632C20.4364 109.414 20.9884 109.304 21.603 109.304C22.2228 109.304 22.7749 109.414 23.2593 109.632C23.7489 109.846 24.1629 110.148 24.5015 110.539C24.84 110.924 25.0978 111.38 25.2749 111.906C25.452 112.427 25.5405 112.992 25.5405 113.601V113.781C25.5405 114.39 25.452 114.955 25.2749 115.476C25.0978 115.997 24.84 116.453 24.5015 116.843C24.1629 117.229 23.7515 117.531 23.2671 117.75C22.7827 117.963 22.2332 118.07 21.6187 118.07C20.9989 118.07 20.4442 117.963 19.9546 117.75C19.4702 117.531 19.0588 117.229 18.7202 116.843C18.3817 116.453 18.1239 115.997 17.9468 115.476C17.7697 114.955 17.6812 114.39 17.6812 113.781ZM19.564 113.601V113.781C19.564 114.161 19.603 114.52 19.6812 114.859C19.7593 115.197 19.8817 115.494 20.0483 115.75C20.215 116.005 20.4285 116.205 20.689 116.351C20.9494 116.497 21.2593 116.57 21.6187 116.57C21.9676 116.57 22.2697 116.497 22.5249 116.351C22.7853 116.205 22.9989 116.005 23.1655 115.75C23.3322 115.494 23.4546 115.197 23.5327 114.859C23.616 114.52 23.6577 114.161 23.6577 113.781V113.601C23.6577 113.226 23.616 112.872 23.5327 112.539C23.4546 112.2 23.3296 111.901 23.1577 111.64C22.991 111.38 22.7775 111.177 22.5171 111.031C22.2619 110.88 21.9572 110.804 21.603 110.804C21.2489 110.804 20.9416 110.88 20.6812 111.031C20.4259 111.177 20.215 111.38 20.0483 111.64C19.8817 111.901 19.7593 112.2 19.6812 112.539C19.603 112.872 19.564 113.226 19.564 113.601ZM29.4155 116.039L31.3687 109.46H32.5718L32.2437 111.429L30.2749 117.914H29.1968L29.4155 116.039ZM28.2671 109.46L29.7905 116.07L29.9155 117.914H28.7124L26.4233 109.46H28.2671ZM34.3999 115.992L35.8765 109.46H37.7124L35.4312 117.914H34.228L34.3999 115.992ZM32.7749 109.46L34.7046 115.96L34.9468 117.914H33.8687L31.8765 111.421L31.5483 109.46H32.7749ZM40.8608 111.265V117.914H38.978V109.46H40.7515L40.8608 111.265ZM40.5249 113.375L39.9155 113.367C39.9207 112.768 40.0041 112.218 40.1655 111.718C40.3322 111.218 40.5614 110.789 40.853 110.429C41.1499 110.07 41.5041 109.794 41.9155 109.601C42.327 109.403 42.7853 109.304 43.2905 109.304C43.6968 109.304 44.064 109.361 44.3921 109.476C44.7254 109.585 45.0093 109.765 45.2437 110.015C45.4832 110.265 45.6655 110.591 45.7905 110.992C45.9155 111.388 45.978 111.875 45.978 112.453V117.914H44.0874V112.445C44.0874 112.039 44.0275 111.718 43.9077 111.484C43.7931 111.244 43.6239 111.075 43.3999 110.976C43.1812 110.872 42.9077 110.82 42.5796 110.82C42.2567 110.82 41.9676 110.888 41.7124 111.023C41.4572 111.158 41.241 111.343 41.064 111.578C40.8921 111.812 40.7593 112.083 40.6655 112.39C40.5718 112.697 40.5249 113.026 40.5249 113.375ZM49.9155 105.914V117.914H48.0249V105.914H49.9155ZM51.6187 113.781V113.601C51.6187 112.992 51.7072 112.427 51.8843 111.906C52.0614 111.38 52.3166 110.924 52.6499 110.539C52.9884 110.148 53.3999 109.846 53.8843 109.632C54.3739 109.414 54.9259 109.304 55.5405 109.304C56.1603 109.304 56.7124 109.414 57.1968 109.632C57.6864 109.846 58.1004 110.148 58.439 110.539C58.7775 110.924 59.0353 111.38 59.2124 111.906C59.3895 112.427 59.478 112.992 59.478 113.601V113.781C59.478 114.39 59.3895 114.955 59.2124 115.476C59.0353 115.997 58.7775 116.453 58.439 116.843C58.1004 117.229 57.689 117.531 57.2046 117.75C56.7202 117.963 56.1707 118.07 55.5562 118.07C54.9364 118.07 54.3817 117.963 53.8921 117.75C53.4077 117.531 52.9963 117.229 52.6577 116.843C52.3192 116.453 52.0614 115.997 51.8843 115.476C51.7072 114.955 51.6187 114.39 51.6187 113.781ZM53.5015 113.601V113.781C53.5015 114.161 53.5405 114.52 53.6187 114.859C53.6968 115.197 53.8192 115.494 53.9858 115.75C54.1525 116.005 54.366 116.205 54.6265 116.351C54.8869 116.497 55.1968 116.57 55.5562 116.57C55.9051 116.57 56.2072 116.497 56.4624 116.351C56.7228 116.205 56.9364 116.005 57.103 115.75C57.2697 115.494 57.3921 115.197 57.4702 114.859C57.5535 114.52 57.5952 114.161 57.5952 113.781V113.601C57.5952 113.226 57.5535 112.872 57.4702 112.539C57.3921 112.2 57.2671 111.901 57.0952 111.64C56.9285 111.38 56.715 111.177 56.4546 111.031C56.1994 110.88 55.8947 110.804 55.…09.848 62.5666 109.656 62.9937 109.515C63.4207 109.375 63.8999 109.304 64.4312 109.304C65.0666 109.304 65.6291 109.411 66.1187 109.625C66.6134 109.838 67.0015 110.161 67.2827 110.593C67.5692 111.02 67.7124 111.557 67.7124 112.203V115.96C67.7124 116.346 67.7384 116.692 67.7905 117C67.8478 117.302 67.9285 117.565 68.0327 117.789V117.914H66.103C66.0145 117.71 65.9442 117.453 65.8921 117.14C65.8452 116.822 65.8218 116.515 65.8218 116.218ZM66.0952 112.773L66.1108 113.937H64.7593C64.4103 113.937 64.103 113.971 63.8374 114.039C63.5718 114.101 63.3504 114.195 63.1733 114.32C62.9963 114.445 62.8634 114.596 62.7749 114.773C62.6864 114.95 62.6421 115.151 62.6421 115.375C62.6421 115.598 62.6942 115.804 62.7983 115.992C62.9025 116.174 63.0535 116.317 63.2515 116.421C63.4546 116.526 63.6994 116.578 63.9858 116.578C64.3713 116.578 64.7072 116.5 64.9937 116.343C65.2853 116.182 65.5145 115.986 65.6812 115.757C65.8478 115.523 65.9364 115.302 65.9468 115.093L66.5562 115.929C66.4937 116.143 66.3869 116.372 66.2358 116.617C66.0848 116.861 65.8869 117.096 65.6421 117.32C65.4025 117.539 65.1134 117.718 64.7749 117.859C64.4416 118 64.0562 118.07 63.6187 118.07C63.0666 118.07 62.5744 117.96 62.1421 117.742C61.7098 117.518 61.3713 117.218 61.1265 116.843C60.8817 116.463 60.7593 116.033 60.7593 115.554C60.7593 115.106 60.8426 114.71 61.0093 114.367C61.1812 114.018 61.4312 113.726 61.7593 113.492C62.0926 113.257 62.4989 113.08 62.978 112.96C63.4572 112.835 64.0041 112.773 64.6187 112.773H66.0952ZM74.8374 116.164V105.914H76.728V117.914H75.0171L74.8374 116.164ZM69.3374 113.781V113.617C69.3374 112.976 69.4129 112.393 69.564 111.867C69.715 111.335 69.9338 110.88 70.2202 110.5C70.5067 110.114 70.8556 109.82 71.2671 109.617C71.6785 109.408 72.1421 109.304 72.6577 109.304C73.1681 109.304 73.616 109.403 74.0015 109.601C74.3869 109.799 74.715 110.083 74.9858 110.453C75.2567 110.817 75.4728 111.255 75.6343 111.765C75.7957 112.27 75.9103 112.833 75.978 113.453V113.976C75.9103 114.58 75.7957 115.132 75.6343 115.632C75.4728 116.132 75.2567 116.565 74.9858 116.929C74.715 117.294 74.3843 117.575 73.9937 117.773C73.6082 117.971 73.1577 118.07 72.6421 118.07C72.1317 118.07 71.6707 117.963 71.2593 117.75C70.853 117.536 70.5067 117.236 70.2202 116.851C69.9338 116.466 69.715 116.013 69.564 115.492C69.4129 114.966 69.3374 114.395 69.3374 113.781ZM71.2202 113.617V113.781C71.2202 114.166 71.2541 114.526 71.3218 114.859C71.3947 115.192 71.5067 115.486 71.6577 115.742C71.8088 115.992 72.0041 116.19 72.2437 116.335C72.4884 116.476 72.7801 116.546 73.1187 116.546C73.5457 116.546 73.8973 116.453 74.1733 116.265C74.4494 116.078 74.6655 115.825 74.8218 115.507C74.9832 115.184 75.0926 114.825 75.1499 114.429V113.015C75.1187 112.708 75.0535 112.421 74.9546 112.156C74.8608 111.89 74.7332 111.658 74.5718 111.46C74.4103 111.257 74.2098 111.101 73.9702 110.992C73.7358 110.877 73.4572 110.82 73.1343 110.82C72.7905 110.82 72.4989 110.893 72.2593 111.039C72.0197 111.184 71.8218 111.385 71.6655 111.64C71.5145 111.895 71.4025 112.192 71.3296 112.531C71.2567 112.869 71.2202 113.231 71.2202 113.617ZM83.439 115.625C83.439 115.437 83.3921 115.268 83.2983 115.117C83.2046 114.96 83.0249 114.82 82.7593 114.695C82.4989 114.57 82.1134 114.455 81.603 114.351C81.1551 114.252 80.7437 114.135 80.3687 114C79.9989 113.859 79.6812 113.69 79.4155 113.492C79.1499 113.294 78.9442 113.059 78.7983 112.789C78.6525 112.518 78.5796 112.205 78.5796 111.851C78.5796 111.507 78.6551 111.182 78.8062 110.875C78.9572 110.567 79.1733 110.296 79.4546 110.062C79.7358 109.828 80.077 109.643 80.478 109.507C80.8843 109.372 81.3374 109.304 81.8374 109.304C82.5457 109.304 83.1525 109.424 83.6577 109.664C84.1681 109.898 84.5588 110.218 84.8296 110.625C85.1004 111.026 85.2358 111.479 85.2358 111.984H83.353C83.353 111.76 83.2957 111.552 83.1812 111.359C83.0718 111.161 82.9051 111.002 82.6812 110.882C82.4572 110.757 82.1759 110.695 81.8374 110.695C81.5145 110.695 81.2463 110.747 81.0327 110.851C80.8244 110.95 80.6681 111.08 80.564 111.242C80.465 111.403 80.4155 111.58 80.4155 111.773C80.4155 111.914 80.4416 112.041 80.4937 112.156C80.5509 112.265 80.6447 112.367 80.7749 112.46C80.9051 112.549 81.0822 112.632 81.3062 112.71C81.5353 112.789 81.8218 112.864 82.1655 112.937C82.8114 113.072 83.366 113.247 83.8296 113.46C84.2983 113.669 84.6577 113.94 84.9077 114.273C85.1577 114.601 85.2827 115.018 85.2827 115.523C85.2827 115.898 85.202 116.242 85.0405 116.554C84.8843 116.861 84.6551 117.13 84.353 117.359C84.0509 117.583 83.689 117.757 83.2671 117.882C82.8504 118.007 82.3817 118.07 81.8608 118.07C81.0952 118.07 80.4468 117.934 79.9155 117.664C79.3843 117.388 78.9806 117.036 78.7046 116.609C78.4338 116.177 78.2983 115.729 78.2983 115.265H80.1187C80.1395 115.614 80.2358 115.893 80.4077 116.101C80.5848 116.304 80.8035 116.453 81.064 116.546C81.3296 116.635 81.603 116.679 81.8843 116.679C82.2228 116.679 82.5067 116.635 82.7358 116.546C82.965 116.453 83.1395 116.328 83.2593 116.171C83.3791 116.01 83.439 115.828 83.439 115.625Z" fill="#484848"></path>
</svg>